<?xml version="1.0" encoding="utf-8"?>
<!-- Generator: Adobe Illustrator 23.0.6, SVG Export Plug-In . SVG Version: 6.00 Build 0)  -->
<svg version="1.1" xmlns="http://www.w3.org/2000/svg" xmlns:xlink="http://www.w3.org/1999/xlink" x="0px" y="0px"
	 viewBox="0 0 200 100" style="enable-background:new 0 0 200 100;" xml:space="preserve">
<style type="text/css">
	.st0{stroke:#000000;stroke-miterlimit:10;}
	.st1{fill:#CECECE;stroke:#000000;stroke-width:0.9439;stroke-miterlimit:10;}
	.st2{font-family:'SegoeUI-Bold';}
	.st3{font-size:14.4921px;}
	.st4{fill:#F9D99E;}
	.st5{fill:#C0B6AD;}
	.st6{fill:#1E1E1E;}
	.st7{fill:none;stroke:#DDBF8E;stroke-width:2.4617;stroke-miterlimit:10;}
</style>
<g id="Warstwa_1">
	<path class="st0" d="M188,100H12c-6.6,0-12-5.4-12-12V12C0,5.4,5.4,0,12,0h176c6.6,0,12,5.4,12,12v76C200,94.6,194.6,100,188,100z"
		/>
	<path class="st1" d="M181.9,97.19H15.78c-6.23,0-11.33-5.1-11.33-11.33V14.13c0-6.23,5.1-11.33,11.33-11.33H181.9
		c6.23,0,11.33,5.1,11.33,11.33v71.73C193.23,92.1,188.13,97.19,181.9,97.19z"/>
	<text transform="matrix(0.9289 0 0 1 88.4395 53.2178)" class="st2 st3">TRANSACTIONS</text>
</g>
<g id="Warstwa_4">
	<g>
		<g id="XMLID_1_">
			<g>
				<path class="st4" d="M50.13,16.81c18.33,0,33.19,14.86,33.19,33.19S68.46,83.19,50.13,83.19S16.94,68.33,16.94,50
					S31.8,16.81,50.13,16.81z M71.89,50c0-12.02-9.74-21.76-21.76-21.76S28.37,37.98,28.37,50s9.74,21.76,21.76,21.76
					S71.89,62.02,71.89,50z"/>
				<path class="st5" d="M50.13,28.24c12.02,0,21.76,9.74,21.76,21.76s-9.74,21.76-21.76,21.76S28.37,62.02,28.37,50
					S38.11,28.24,50.13,28.24z M56.61,39.08c0.65,1.73,3.67,0.99,3.01-0.76c-0.48-1.28-1.08-2.6-2.38-3.37
					c-1.28-0.76-2.97-0.8-4.39-0.4c-2.95,0.83-5.1,3.34-6.29,5.83c-0.72,1.52-0.88,3.12-1.15,4.73c-0.07,0.36-0.14,0.72-0.2,1.08
					c-1.04,0.02-2.07,0.04-3.1,0.06c-0.82,0.01-1.61,0.65-1.57,1.43c0.04,0.76,0.69,1.44,1.57,1.43c0.84-0.02,1.68-0.03,2.52-0.05
					c-0.08,0.41-0.17,0.82-0.26,1.22c-0.42,1.79-0.89,3.56-1.42,5.33c-0.31,1.01-0.56,2.21-0.99,3.29c-0.2,0.13-0.4,0.27-0.57,0.43
					c-1.09,1.03-0.99,3.11,0.92,3.23c1.02,0.07,1.64-0.65,2.06-1.5c0.16-0.05,0.32-0.1,0.48-0.12c0.73-0.11,1.49-0.1,2.22,0.03
					c1.32,0.23,2.55,0.75,3.81,1.13c2.56,0.75,5.25,0.75,7.77-0.11c1.87-0.64,1.06-3.41-0.83-2.76c-1.87,0.64-3.75,0.75-5.68,0.23
					c-1.87-0.5-3.6-1.27-5.57-1.42c-0.36-0.03-0.74-0.04-1.13-0.03c0.48-1.49,0.94-3,1.34-4.52c0.39-1.49,0.73-2.98,1.04-4.48
					c1.55-0.03,3.1-0.06,4.65-0.09c0.82-0.01,1.6-0.64,1.56-1.43c-0.03-0.76-0.68-1.44-1.56-1.43c-1.38,0.03-2.75,0.05-4.13,0.08
					c0.2-1.39,0.38-2.8,0.86-4.11c0.59-1.58,1.81-3.27,3.35-4.21c0.67-0.41,1.58-0.78,2.42-0.65C56,37.32,56.31,38.3,56.61,39.08z"
					/>
				<path class="st6" d="M45.44,58.01c0.39-0.01,0.77,0,1.13,0.03c1.97,0.15,3.7,0.92,5.57,1.42c1.93,0.52,3.81,0.41,5.68-0.23
					c1.89-0.65,2.7,2.12,0.83,2.76c-2.52,0.86-5.21,0.86-7.77,0.11c-1.26-0.38-2.49-0.9-3.81-1.13c-0.73-0.13-1.49-0.14-2.22-0.03
					c-0.16,0.02-0.32,0.07-0.48,0.12c-0.42,0.85-1.04,1.57-2.06,1.5c-1.91-0.12-2.01-2.2-0.92-3.23c0.17-0.16,0.37-0.3,0.57-0.43
					c0.43-1.08,0.68-2.28,0.99-3.29c0.53-1.77,1-3.54,1.42-5.33c0.09-0.4,0.18-0.81,0.26-1.22c-0.84,0.02-1.68,0.03-2.52,0.05
					c-0.88,0.01-1.53-0.67-1.57-1.43c-0.04-0.78,0.75-1.42,1.57-1.43c1.03-0.02,2.06-0.04,3.1-0.06c0.06-0.36,0.13-0.72,0.2-1.08
					c0.27-1.61,0.43-3.21,1.15-4.73c1.19-2.49,3.34-5,6.29-5.83c1.42-0.4,3.11-0.36,4.39,0.4c1.3,0.77,1.9,2.09,2.38,3.37
					c0.66,1.75-2.36,2.49-3.01,0.76c-0.3-0.78-0.61-1.76-1.64-1.91c-0.84-0.13-1.75,0.24-2.42,0.65c-1.54,0.94-2.76,2.63-3.35,4.21
					c-0.48,1.31-0.66,2.72-0.86,4.11c1.38-0.03,2.75-0.05,4.13-0.08c0.88-0.01,1.53,0.67,1.56,1.43c0.04,0.79-0.74,1.42-1.56,1.43
					c-1.55,0.03-3.1,0.06-4.65,0.09c-0.31,1.5-0.65,2.99-1.04,4.48C46.38,55.01,45.92,56.52,45.44,58.01z"/>
			</g>
			<g>
				<circle class="st7" cx="50.13" cy="50" r="33.19"/>
			</g>
		</g>
	</g>
</g>
</svg>
