<?xml version="1.0" encoding="utf-8"?>
<!-- Generator: Adobe Illustrator 23.0.6, SVG Export Plug-In . SVG Version: 6.00 Build 0)  -->
<svg version="1.1" xmlns="http://www.w3.org/2000/svg" xmlns:xlink="http://www.w3.org/1999/xlink" x="0px" y="0px"
	 viewBox="0 0 200 100" style="enable-background:new 0 0 200 100;" xml:space="preserve">
<style type="text/css">
	.st0{stroke:#000000;stroke-miterlimit:10;}
	.st1{fill:#CECECE;stroke:#000000;stroke-width:0.9439;stroke-miterlimit:10;}
	.st2{font-family:'SegoeUI-Bold';}
	.st3{font-size:30.1518px;}
	.st4{fill:#CECECE;}
	.st5{fill:#EAEAEA;stroke:#000000;stroke-width:0.738;stroke-miterlimit:10;}
	.st6{fill:#747474;}
</style>
<g id="Warstwa_1">
	<path class="st0" d="M188,100H12c-6.6,0-12-5.4-12-12V12C0,5.4,5.4,0,12,0h176c6.6,0,12,5.4,12,12v76C200,94.6,194.6,100,188,100z"
		/>
	<path class="st1" d="M181.9,97.19H15.78c-6.23,0-11.33-5.1-11.33-11.33V14.13c0-6.23,5.1-11.33,11.33-11.33H181.9
		c6.23,0,11.33,5.1,11.33,11.33v71.73C193.23,92.1,188.13,97.19,181.9,97.19z"/>
	<text transform="matrix(0.9289 0 0 1 103.9463 56.502)" class="st2 st3">TAGS</text>
</g>
<g id="Warstwa_2">
	<path class="st4" d="M100,53.93"/>
	<g>
		<path class="st5" d="M71.58,57.51L37.41,83.95L11.62,50.62L45.9,24.09l22.8-3.37l11.73,15.16L71.58,57.51z M70.38,30.82
			c-1.32-1.27-3.42-1.23-4.7,0.09c-1.27,1.32-1.23,3.42,0.09,4.7c1.32,1.27,3.42,1.23,4.7-0.09C71.74,34.2,71.7,32.09,70.38,30.82z"
			/>
		<path class="st6" d="M58.45,43.49L31.04,64.71c-0.97,0.75-2.39,0.57-3.14-0.4h0c-0.75-0.97-0.57-2.39,0.4-3.14l27.41-21.21
			c0.97-0.75,2.39-0.57,3.14,0.4l0,0C59.6,41.33,59.42,42.74,58.45,43.49z"/>
		<path class="st6" d="M53.74,37.41L26.33,58.62c-0.97,0.75-2.39,0.57-3.14-0.4l0,0c-0.75-0.97-0.57-2.39,0.4-3.14l27.41-21.21
			c0.97-0.75,2.39-0.57,3.14,0.4l0,0C54.9,35.25,54.72,36.66,53.74,37.41z"/>
		<path class="st6" d="M63.16,49.57L35.74,70.79c-0.97,0.75-2.39,0.57-3.14-0.4l0,0c-0.75-0.97-0.57-2.39,0.4-3.14l27.41-21.21
			c0.97-0.75,2.39-0.57,3.14,0.4v0C64.31,47.41,64.13,48.82,63.16,49.57z"/>
	</g>
</g>
</svg>
