<?xml version="1.0" encoding="utf-8"?>
<!-- Generator: Adobe Illustrator 23.0.6, SVG Export Plug-In . SVG Version: 6.00 Build 0)  -->
<svg version="1.1" xmlns="http://www.w3.org/2000/svg" xmlns:xlink="http://www.w3.org/1999/xlink" x="0px" y="0px"
	 viewBox="0 0 200 100" style="enable-background:new 0 0 200 100;" xml:space="preserve">
<style type="text/css">
	.st0{stroke:#000000;stroke-miterlimit:10;}
	.st1{fill:#CECECE;stroke:#000000;stroke-width:0.9439;stroke-miterlimit:10;}
	.st2{font-family:'SegoeUI-Bold';}
	.st3{font-size:31px;}
	.st4{font-size:21.8213px;}
	.st5{fill:#FFFFFF;stroke:#000000;stroke-width:0.9439;stroke-miterlimit:10;}
	.st6{fill:#949494;}
</style>
<g id="Warstwa_1">
	<path class="st0" d="M188,100H12c-6.6,0-12-5.4-12-12V12C0,5.4,5.4,0,12,0h176c6.6,0,12,5.4,12,12v76C200,94.6,194.6,100,188,100z"
		/>
	<path class="st1" d="M183.06,97.19H16.94c-6.23,0-11.33-5.1-11.33-11.33V14.13c0-6.23,5.1-11.33,11.33-11.33h166.12
		c6.23,0,11.33,5.1,11.33,11.33v71.73C194.39,92.1,189.29,97.19,183.06,97.19z"/>
	<text transform="matrix(0.9289 0 0 1 77.877 48.9512)"><tspan x="0" y="0" class="st2 st3">INCOME </tspan><tspan x="-1.97" y="20.46" class="st2 st4">STATEMENT</tspan></text>
</g>
<g id="Warstwa_2">
	<rect x="18.1" y="14.58" class="st5" width="53.23" height="65.03"/>
	<rect x="21" y="17.48" class="st5" width="53.23" height="65.03"/>
	<path class="st6" d="M68.23,25.77H27c-1.06,0-1.94-0.87-1.94-1.94v0c0-1.06,0.87-1.94,1.94-1.94h41.23c1.06,0,1.94,0.87,1.94,1.94
		v0C70.16,24.9,69.29,25.77,68.23,25.77z"/>
	<path class="st6" d="M68.23,32.06H27c-1.06,0-1.94-0.87-1.94-1.94v0c0-1.06,0.87-1.94,1.94-1.94h41.23c1.06,0,1.94,0.87,1.94,1.94
		v0C70.16,31.19,69.29,32.06,68.23,32.06z"/>
	<path class="st6" d="M68.23,38.35H27c-1.06,0-1.94-0.87-1.94-1.94v0c0-1.06,0.87-1.94,1.94-1.94h41.23c1.06,0,1.94,0.87,1.94,1.94
		v0C70.16,37.48,69.29,38.35,68.23,38.35z"/>
	<path class="st6" d="M68.23,44.65H27c-1.06,0-1.94-0.87-1.94-1.94v0c0-1.06,0.87-1.94,1.94-1.94h41.23c1.06,0,1.94,0.87,1.94,1.94
		v0C70.16,43.77,69.29,44.65,68.23,44.65z"/>
	<path class="st6" d="M68.23,50.94H27c-1.06,0-1.94-0.87-1.94-1.94v0c0-1.06,0.87-1.94,1.94-1.94h41.23c1.06,0,1.94,0.87,1.94,1.94
		v0C70.16,50.06,69.29,50.94,68.23,50.94z"/>
	<path class="st6" d="M68.23,57.23H27c-1.06,0-1.94-0.87-1.94-1.94v0c0-1.06,0.87-1.94,1.94-1.94h41.23c1.06,0,1.94,0.87,1.94,1.94
		v0C70.16,56.35,69.29,57.23,68.23,57.23z"/>
	<path class="st6" d="M68.23,63.52H27c-1.06,0-1.94-0.87-1.94-1.94v0c0-1.06,0.87-1.94,1.94-1.94h41.23c1.06,0,1.94,0.87,1.94,1.94
		v0C70.16,62.65,69.29,63.52,68.23,63.52z"/>
	<path class="st6" d="M68.23,69.81H27c-1.06,0-1.94-0.87-1.94-1.94v0c0-1.06,0.87-1.94,1.94-1.94h41.23c1.06,0,1.94,0.87,1.94,1.94
		v0C70.16,68.94,69.29,69.81,68.23,69.81z"/>
	<path class="st6" d="M68.23,76.1H27c-1.06,0-1.94-0.87-1.94-1.94v0c0-1.06,0.87-1.94,1.94-1.94h41.23c1.06,0,1.94,0.87,1.94,1.94v0
		C70.16,75.23,69.29,76.1,68.23,76.1z"/>
</g>
</svg>
