<?xml version="1.0" encoding="utf-8"?>
<!-- Generator: Adobe Illustrator 23.0.6, SVG Export Plug-In . SVG Version: 6.00 Build 0)  -->
<svg version="1.1" id="Warstwa_3" xmlns="http://www.w3.org/2000/svg" xmlns:xlink="http://www.w3.org/1999/xlink" x="0px" y="0px"
	 viewBox="0 0 512 512" style="enable-background:new 0 0 512 512;" xml:space="preserve">
<style type="text/css">
	.st0{fill:#747474;}
	.st1{fill:none;stroke:#231F20;stroke-width:1.0261;stroke-linecap:round;stroke-miterlimit:10;}
	.st2{fill:#E2E2E2;stroke:#231F20;stroke-width:0.9594;stroke-linecap:round;stroke-miterlimit:10;}
	.st3{fill:#949494;}
	.st4{fill:url(#SVGID_1_);}
	.st5{fill:none;stroke:#000000;stroke-width:1.1525;stroke-linecap:round;stroke-miterlimit:10;}
</style>
<g id="XMLID_3_">
	<g>
		<path class="st0" d="M487.54,0C498.79,0,508,9.21,508,20.46v467.08c0,11.25-9.21,20.46-20.46,20.46H23.46
			C12.21,508,3,498.79,3,487.54V20.46C3,9.21,12.21,0,23.46,0H487.54z"/>
	</g>
	<g>
		<path class="st1" d="M487.54,508H23.46C12.21,508,3,498.79,3,487.54V20.46C3,9.21,12.21,0,23.46,0h464.08
			C498.79,0,508,9.21,508,20.46v467.08C508,498.79,498.79,508,487.54,508z"/>
	</g>
</g>
<path class="st2" d="M472.47,491.49H38.53c-10.52,0-19.14-8.61-19.14-19.14V35.65c0-10.52,8.61-19.14,19.14-19.14h433.94
	c10.52,0,19.14,8.61,19.14,19.14v436.71C491.6,482.88,482.99,491.49,472.47,491.49z"/>
<path class="st3" d="M455.45,77.47H58.83c-8.16,0-14.84-6.68-14.84-14.84v-4.61c0-8.16,6.68-14.84,14.84-14.84h396.61
	c8.16,0,14.84,6.68,14.84,14.84v4.61C470.29,70.79,463.61,77.47,455.45,77.47z"/>
<path class="st3" d="M454.63,131.45H58.01c-8.16,0-14.84-6.68-14.84-14.84V112c0-8.16,6.68-14.84,14.84-14.84h396.61
	c8.16,0,14.84,6.68,14.84,14.84v4.61C469.47,124.77,462.79,131.45,454.63,131.45z"/>
<path class="st3" d="M452.99,184.79H56.37c-8.16,0-14.84-6.68-14.84-14.84v-4.61c0-8.16,6.68-14.84,14.84-14.84h396.61
	c8.16,0,14.84,6.68,14.84,14.84v4.61C467.83,178.11,461.15,184.79,452.99,184.79z"/>
<path class="st3" d="M452.99,238.13H56.37c-8.16,0-14.84-6.68-14.84-14.84v-4.61c0-8.16,6.68-14.84,14.84-14.84h396.61
	c8.16,0,14.84,6.68,14.84,14.84v4.61C467.83,231.45,461.15,238.13,452.99,238.13z"/>
<path class="st3" d="M452.99,291.46H56.37c-8.16,0-14.84-6.68-14.84-14.84v-4.61c0-8.16,6.68-14.84,14.84-14.84h396.61
	c8.16,0,14.84,6.68,14.84,14.84v4.61C467.83,284.79,461.15,291.46,452.99,291.46z"/>
<path class="st3" d="M454.63,344.8H58.01c-8.16,0-14.84-6.68-14.84-14.84v-4.61c0-8.16,6.68-14.84,14.84-14.84h396.61
	c8.16,0,14.84,6.68,14.84,14.84v4.61C469.47,338.13,462.79,344.8,454.63,344.8z"/>
<path class="st3" d="M454.63,398.14H58.01c-8.16,0-14.84-6.68-14.84-14.84v-4.61c0-8.16,6.68-14.84,14.84-14.84h396.61
	c8.16,0,14.84,6.68,14.84,14.84v4.61C469.47,391.47,462.79,398.14,454.63,398.14z"/>
<path class="st3" d="M452.99,451.48H56.37c-8.16,0-14.84-6.68-14.84-14.84v-4.61c0-8.16,6.68-14.84,14.84-14.84h396.61
	c8.16,0,14.84,6.68,14.84,14.84v4.61C467.83,444.81,461.15,451.48,452.99,451.48z"/>
<g id="XMLID_2_">
	<g>
		<linearGradient id="SVGID_1_" gradientUnits="userSpaceOnUse" x1="255.6561" y1="197.0197" x2="255.6561" y2="480.1233">
			<stop  offset="0" style="stop-color:#37FF9B"/>
			<stop  offset="1" style="stop-color:#3F62FF"/>
		</linearGradient>
		<path class="st4" d="M399.29,424.93c3,10.7-3.73,24.62-15.53,26.82c-21.86,4.08-44.08,6.3-66.35,5.61
			c-21.43-0.64-42.27-4.78-63.43-7.66c-40.76-5.58-81.8,7.64-122.04-4.27c-16.54-4.89-21.07-24.22-9.81-36.46
			c15.07-16.37,25.36-36.31,34.74-56.19c8.7-18.42,20.08-38.32,17.93-59.26c-0.77-7.49-2.32-14.97-4.2-22.42
			c-12.36-0.46-24.72-0.99-37.06-1.57c-12.05-0.59-22.25-9.52-22.25-21.81c0-11.38,10.23-22.4,22.25-21.81
			c8.36,0.4,16.71,0.76,25.07,1.1c-4.68-19.99-8.32-40.61-8.01-61.12c0.62-39.59,15.55-79.61,49.38-103.1
			c32.3-22.42,76.33-23.92,113.39-13.81c21.99,6.01,39.73,17.3,52.52,35.96c10.43,15.21,15.92,33.56,20.81,51.04
			c7.6,27.16-35.34,38.64-42.9,11.59c-4.31-15.46-8.8-33.1-19.56-44.54c-10.62-11.31-30.33-15.14-46.11-16.12
			c-31.01-1.95-59.4,8.12-73.8,36.57c-15.09,29.78-9.27,65.65-1.62,97.03c0.66,2.69,1.35,5.39,2.05,8.08
			c1.55,0.04,3.09,0.09,4.62,0.13c12.65,0.32,25.3,0.59,37.95,0.76c6.33,0.09,12.65,0.23,18.98,0.23c2.94,0,7.49,0.8,10.1-0.36
			c11.01-4.86,23.85-3.22,30.45,7.82c5.59,9.41,2.96,25.02-7.99,29.86c-24.7,10.91-55.44,6.15-81.88,5.52
			c-0.33-0.02-0.64-0.02-0.97-0.02c0.39,1.86,0.77,3.74,1.1,5.63c3.83,21.49,2.05,41.48-6.23,61.78
			c-9.34,22.93-19.63,46.11-32.86,67.34c7.04-0.11,14.12-0.61,21.2-1.1c19.63-1.42,38.73-2.24,58.3,0.3
			c19.4,2.54,38.42,6.47,58.03,7.19c18.92,0.7,37.76-0.53,56.35-4C383.76,407.48,395.89,412.79,399.29,424.93z"/>
	</g>
	<g>
		<path class="st5" d="M399.29,424.93c-3.4-12.14-15.53-17.45-27.37-15.25c-18.59,3.47-37.43,4.7-56.35,4
			c-19.61-0.72-38.63-4.65-58.03-7.19c-19.58-2.54-38.67-1.73-58.3-0.3c-7.08,0.49-14.16,0.99-21.2,1.1
			c13.23-21.23,23.52-44.41,32.86-67.34c8.28-20.3,10.06-40.29,6.23-61.78c-0.33-1.9-0.72-3.77-1.1-5.63c0.33,0,0.64,0,0.97,0.02
			c26.44,0.63,57.18,5.39,81.88-5.52c10.95-4.84,13.58-20.45,7.99-29.86c-6.6-11.04-19.44-12.67-30.45-7.82
			c-2.61,1.16-7.16,0.36-10.1,0.36c-6.33,0-12.65-0.13-18.98-0.23c-12.65-0.17-25.3-0.44-37.95-0.76c-1.53-0.04-3.08-0.09-4.62-0.13
			c-0.7-2.69-1.39-5.39-2.05-8.08c-7.64-31.37-13.46-67.24,1.62-97.03c14.39-28.45,42.79-38.53,73.8-36.57
			c15.78,0.99,35.5,4.82,46.11,16.12c10.75,11.44,15.24,29.08,19.56,44.54c7.56,27.05,50.51,15.57,42.9-11.59
			c-4.89-17.49-10.39-35.83-20.81-51.04C353.12,66.29,335.38,55,313.39,48.99C276.33,38.88,232.3,40.38,200,62.8
			c-33.83,23.48-48.76,63.51-49.38,103.1c-0.31,20.51,3.33,41.12,8.01,61.12c-8.36-0.34-16.71-0.7-25.07-1.1
			c-12.01-0.59-22.25,10.43-22.25,21.81c0,12.29,10.19,21.23,22.25,21.81c12.34,0.59,24.7,1.12,37.06,1.57
			c1.88,7.45,3.42,14.93,4.2,22.42c2.15,20.94-9.23,40.84-17.93,59.26c-9.38,19.88-19.67,39.82-34.74,56.19
			c-11.26,12.23-6.73,31.56,9.81,36.46c40.23,11.91,81.28-1.31,122.04,4.27c21.16,2.88,41.99,7.02,63.43,7.66
			c22.26,0.68,44.49-1.54,66.35-5.61C395.56,449.55,402.29,435.63,399.29,424.93z"/>
	</g>
</g>
</svg>
